<svg width="171" height="47" viewBox="0 0 171 47" fill="none" xmlns="http://www.w3.org/2000/svg">
<g filter="url(#filter0_d_394_1139)">
<path d="M4.00001 37.8332V14.5605H13.7046C15.447 14.5605 16.9053 14.8067 18.0796 15.2991C19.2614 15.7915 20.1477 16.4809 20.7386 17.3673C21.3371 18.2536 21.6364 19.2802 21.6364 20.4468C21.6364 21.3332 21.4508 22.1249 21.0796 22.8218C20.7083 23.5112 20.197 24.0832 19.5455 24.5377C18.894 24.9923 18.1402 25.3105 17.2841 25.4923V25.7196C18.2235 25.765 19.0909 26.0188 19.8864 26.4809C20.6894 26.943 21.3333 27.587 21.8182 28.4127C22.303 29.2309 22.5455 30.2006 22.5455 31.3218C22.5455 32.5718 22.2273 33.6893 21.5909 34.6741C20.9546 35.6514 20.0341 36.4241 18.8296 36.9923C17.625 37.5529 16.1629 37.8332 14.4432 37.8332H4.00001ZM9.62501 33.2991H13.1023C14.322 33.2991 15.2197 33.068 15.7955 32.6059C16.3788 32.1438 16.6705 31.4999 16.6705 30.6741C16.6705 30.0756 16.5303 29.5605 16.25 29.1286C15.9697 28.6893 15.572 28.3521 15.0568 28.1173C14.5417 27.8749 13.9243 27.7536 13.2046 27.7536H9.62501V33.2991ZM9.62501 24.1286H12.7386C13.3523 24.1286 13.8977 24.0264 14.375 23.8218C14.8523 23.6173 15.2235 23.3218 15.4886 22.9355C15.7614 22.5491 15.8977 22.0832 15.8977 21.5377C15.8977 20.7574 15.6212 20.1438 15.0682 19.6968C14.5152 19.2499 13.769 19.0264 12.8296 19.0264H9.62501V24.1286ZM25.25 37.8332V20.3786H30.8068V37.8332H25.25ZM28.0341 18.3446C27.2538 18.3446 26.5833 18.087 26.0227 17.5718C25.4621 17.0491 25.1818 16.4203 25.1818 15.6855C25.1818 14.9582 25.4621 14.337 26.0227 13.8218C26.5833 13.2991 27.2538 13.0377 28.0341 13.0377C28.822 13.0377 29.4924 13.2991 30.0455 13.8218C30.6061 14.337 30.8864 14.9582 30.8864 15.6855C30.8864 16.4203 30.6061 17.0491 30.0455 17.5718C29.4924 18.087 28.822 18.3446 28.0341 18.3446ZM39.9006 27.8786V37.8332H34.3438V20.3786H39.6279V23.5832H39.821C40.2074 22.515 40.8665 21.6779 41.7983 21.0718C42.7301 20.4582 43.84 20.1514 45.1279 20.1514C46.3551 20.1514 47.4195 20.4279 48.321 20.9809C49.2301 21.5264 49.9347 22.2915 50.4347 23.2764C50.9422 24.2536 51.1922 25.3976 51.1847 26.7082V37.8332H45.6279V27.7991C45.6354 26.8294 45.3892 26.0718 44.8892 25.5264C44.3968 24.9809 43.7112 24.7082 42.8324 24.7082C42.2491 24.7082 41.7339 24.837 41.2869 25.0946C40.8475 25.3446 40.5066 25.7044 40.2642 26.1741C40.0294 26.6438 39.9082 27.212 39.9006 27.8786ZM64.4773 20.3786V24.4696H53.4659V20.3786H64.4773ZM55.7727 16.1968H61.3296V32.3446C61.3296 32.6855 61.3826 32.962 61.4886 33.1741C61.6023 33.3786 61.7652 33.5264 61.9773 33.6173C62.1894 33.7006 62.4432 33.7423 62.7386 33.7423C62.9508 33.7423 63.1743 33.7233 63.4091 33.6855C63.6515 33.64 63.8333 33.6021 63.9546 33.5718L64.7955 37.5832C64.5303 37.6589 64.1553 37.7536 63.6705 37.8673C63.1932 37.9809 62.6212 38.0529 61.9546 38.0832C60.6515 38.1438 59.5341 37.9923 58.6023 37.6286C57.678 37.2574 56.9697 36.6817 56.4773 35.9014C55.9924 35.1211 55.7576 34.14 55.7727 32.9582V16.1968ZM72.233 38.1286C71.1193 38.1286 70.1307 37.943 69.2671 37.5718C68.411 37.193 67.733 36.6249 67.233 35.8673C66.7405 35.1021 66.4943 34.1438 66.4943 32.9923C66.4943 32.0226 66.6648 31.2044 67.0057 30.5377C67.3466 29.8711 67.8163 29.3294 68.4148 28.9127C69.0133 28.4961 69.7027 28.1817 70.483 27.9696C71.2633 27.7499 72.0966 27.6021 72.983 27.5264C73.9754 27.4355 74.7746 27.3408 75.3807 27.2423C75.9868 27.1362 76.4261 26.9885 76.6989 26.7991C76.9792 26.6021 77.1193 26.3256 77.1193 25.9696V25.9127C77.1193 25.3294 76.9186 24.8786 76.5171 24.5605C76.1155 24.2423 75.5739 24.0832 74.8921 24.0832C74.1572 24.0832 73.5663 24.2423 73.1193 24.5605C72.6724 24.8786 72.3883 25.318 72.2671 25.8786L67.1421 25.6968C67.2936 24.6362 67.6837 23.6893 68.3125 22.8559C68.9489 22.015 69.8201 21.3559 70.9261 20.8786C72.0398 20.3938 73.3769 20.1514 74.9375 20.1514C76.0511 20.1514 77.0777 20.2839 78.0171 20.5491C78.9565 20.8067 79.7746 21.1855 80.4716 21.6855C81.1686 22.1779 81.7065 22.7839 82.0852 23.5036C82.4716 24.2233 82.6648 25.0453 82.6648 25.9696V37.8332H77.4375V35.4014H77.3011C76.9905 35.9923 76.5928 36.4923 76.108 36.9014C75.6307 37.3105 75.0663 37.6173 74.4148 37.8218C73.7708 38.0264 73.0436 38.1286 72.233 38.1286ZM73.9489 34.4923C74.5474 34.4923 75.0852 34.3711 75.5625 34.1286C76.0474 33.8862 76.4337 33.5529 76.7216 33.1286C77.0095 32.6968 77.1534 32.1968 77.1534 31.6286V29.9696C76.9943 30.0529 76.8011 30.1286 76.5739 30.1968C76.3542 30.265 76.1118 30.3294 75.8466 30.39C75.5815 30.4506 75.3087 30.5036 75.0284 30.5491C74.7481 30.5946 74.4792 30.6362 74.2216 30.6741C73.6989 30.7574 73.2519 30.8862 72.8807 31.0605C72.5171 31.2347 72.2368 31.462 72.0398 31.7423C71.8504 32.015 71.7557 32.3408 71.7557 32.7196C71.7557 33.2953 71.9602 33.7347 72.3693 34.0377C72.786 34.3408 73.3125 34.4923 73.9489 34.4923ZM107.188 22.9923H101.506C101.43 22.4089 101.275 21.8824 101.04 21.4127C100.805 20.943 100.494 20.5415 100.108 20.2082C99.7216 19.8749 99.2633 19.6211 98.733 19.4468C98.2102 19.265 97.6307 19.1741 96.9943 19.1741C95.8655 19.1741 94.8921 19.4506 94.0739 20.0036C93.2633 20.5567 92.6383 21.3559 92.1989 22.4014C91.7671 23.4468 91.5511 24.712 91.5511 26.1968C91.5511 27.7423 91.7708 29.0377 92.2102 30.0832C92.6572 31.1211 93.2822 31.9052 94.0852 32.4355C94.8958 32.9582 95.8542 33.2196 96.9602 33.2196C97.5815 33.2196 98.1458 33.14 98.6534 32.9809C99.1686 32.8218 99.6193 32.5908 100.006 32.2877C100.4 31.9771 100.722 31.6021 100.972 31.1627C101.229 30.7158 101.407 30.212 101.506 29.6514L107.188 29.6855C107.089 30.7158 106.79 31.7309 106.29 32.7309C105.797 33.7309 105.119 34.6438 104.256 35.4696C103.392 36.2877 102.339 36.9393 101.097 37.4241C99.8618 37.9089 98.4451 38.1514 96.8466 38.1514C94.7405 38.1514 92.8542 37.6893 91.1875 36.765C89.5284 35.8332 88.2178 34.4771 87.2557 32.6968C86.2936 30.9165 85.8125 28.7499 85.8125 26.1968C85.8125 23.6362 86.3011 21.4658 87.2784 19.6855C88.2557 17.9052 89.5777 16.5529 91.2443 15.6286C92.911 14.7044 94.7784 14.2423 96.8466 14.2423C98.2557 14.2423 99.5587 14.4393 100.756 14.8332C101.953 15.2196 103.006 15.7877 103.915 16.5377C104.824 17.2802 105.563 18.193 106.131 19.2764C106.699 20.3597 107.051 21.5983 107.188 22.9923ZM121.668 30.2991V20.3786H127.213V37.8332H121.918V34.5832H121.736C121.349 35.6514 120.69 36.4999 119.759 37.1286C118.834 37.7499 117.717 38.0605 116.406 38.0605C115.217 38.0605 114.171 37.7877 113.27 37.2423C112.368 36.6968 111.668 35.9355 111.168 34.9582C110.668 33.9733 110.414 32.8218 110.406 31.5036V20.3786H115.963V30.4127C115.971 31.3597 116.221 32.1059 116.713 32.6514C117.206 33.1968 117.876 33.4696 118.724 33.4696C119.277 33.4696 119.774 33.3483 120.213 33.1059C120.66 32.8559 121.012 32.4961 121.27 32.0264C121.535 31.5491 121.668 30.9733 121.668 30.2991ZM130.75 37.8332V20.3786H136.148V23.5605H136.33C136.648 22.4089 137.167 21.5529 137.886 20.9923C138.606 20.4241 139.443 20.14 140.398 20.14C140.655 20.14 140.92 20.1589 141.193 20.1968C141.466 20.2271 141.72 20.2764 141.955 20.3446V25.1741C141.689 25.0832 141.341 25.0112 140.909 24.9582C140.485 24.9052 140.106 24.8786 139.773 24.8786C139.114 24.8786 138.519 25.0264 137.989 25.3218C137.466 25.6097 137.053 26.015 136.75 26.5377C136.455 27.0529 136.307 27.6589 136.307 28.3559V37.8332H130.75ZM148.483 38.1286C147.369 38.1286 146.381 37.943 145.517 37.5718C144.661 37.193 143.983 36.6249 143.483 35.8673C142.991 35.1021 142.744 34.1438 142.744 32.9923C142.744 32.0226 142.915 31.2044 143.256 30.5377C143.597 29.8711 144.066 29.3294 144.665 28.9127C145.263 28.4961 145.953 28.1817 146.733 27.9696C147.513 27.7499 148.347 27.6021 149.233 27.5264C150.225 27.4355 151.025 27.3408 151.631 27.2423C152.237 27.1362 152.676 26.9885 152.949 26.7991C153.229 26.6021 153.369 26.3256 153.369 25.9696V25.9127C153.369 25.3294 153.169 24.8786 152.767 24.5605C152.366 24.2423 151.824 24.0832 151.142 24.0832C150.407 24.0832 149.816 24.2423 149.369 24.5605C148.922 24.8786 148.638 25.318 148.517 25.8786L143.392 25.6968C143.544 24.6362 143.934 23.6893 144.563 22.8559C145.199 22.015 146.07 21.3559 147.176 20.8786C148.29 20.3938 149.627 20.1514 151.188 20.1514C152.301 20.1514 153.328 20.2839 154.267 20.5491C155.206 20.8067 156.025 21.1855 156.722 21.6855C157.419 22.1779 157.956 22.7839 158.335 23.5036C158.722 24.2233 158.915 25.0453 158.915 25.9696V37.8332H153.688V35.4014H153.551C153.241 35.9923 152.843 36.4923 152.358 36.9014C151.881 37.3105 151.316 37.6173 150.665 37.8218C150.021 38.0264 149.294 38.1286 148.483 38.1286ZM150.199 34.4923C150.797 34.4923 151.335 34.3711 151.813 34.1286C152.297 33.8862 152.684 33.5529 152.972 33.1286C153.259 32.6968 153.403 32.1968 153.403 31.6286V29.9696C153.244 30.0529 153.051 30.1286 152.824 30.1968C152.604 30.265 152.362 30.3294 152.097 30.39C151.831 30.4506 151.559 30.5036 151.278 30.5491C150.998 30.5946 150.729 30.6362 150.472 30.6741C149.949 30.7574 149.502 30.8862 149.131 31.0605C148.767 31.2347 148.487 31.462 148.29 31.7423C148.1 32.015 148.006 32.3408 148.006 32.7196C148.006 33.2953 148.21 33.7347 148.619 34.0377C149.036 34.3408 149.563 34.4923 150.199 34.4923Z" fill="#007AFF"/>
</g>
<path d="M158.275 15.4924C159.589 15.4924 160.707 15.0687 161.627 14.2215C162.547 13.3743 163.007 12.3455 163.007 11.1351V6.77791H158.275C156.96 6.77791 155.843 7.20153 154.923 8.04877C154.003 8.89601 153.543 9.9248 153.543 11.1351C153.543 11.5547 153.604 11.9582 153.727 12.3455C153.849 12.7328 154.033 13.104 154.279 13.459L153.858 13.8463C153.665 14.0238 153.569 14.2497 153.569 14.5241C153.569 14.7984 153.665 15.0244 153.858 15.2019C154.051 15.3794 154.296 15.4682 154.594 15.4682C154.892 15.4682 155.137 15.3794 155.33 15.2019L155.751 14.8146C156.137 15.0405 156.54 15.21 156.96 15.3229C157.381 15.4359 157.819 15.4924 158.275 15.4924ZM158.275 13.5558C158.117 13.5558 157.959 13.5397 157.802 13.5074C157.644 13.4751 157.486 13.4348 157.328 13.3864L159.537 11.3288C159.73 11.1513 159.826 10.9253 159.826 10.651C159.826 10.3767 159.73 10.1507 159.537 9.97321C159.344 9.79569 159.099 9.70694 158.801 9.70694C158.503 9.70694 158.257 9.79569 158.064 9.97321L155.83 12.0066C155.777 11.8613 155.733 11.7161 155.698 11.5709C155.663 11.4256 155.646 11.2804 155.646 11.1351C155.646 10.4573 155.9 9.88445 156.408 9.41645C156.916 8.94845 157.539 8.71446 158.275 8.71446H160.904V11.1351C160.904 11.8129 160.65 12.3858 160.141 12.8538C159.633 13.3218 159.011 13.5558 158.275 13.5558ZM158.801 21.302L155.173 18.6877L150.624 18.1793L150.072 13.9915L147.233 10.651L150.072 7.31046L150.624 3.12268L155.173 2.61434L158.801 0L162.429 2.61434L166.977 3.12268L167.529 7.31046L170.368 10.651L167.529 13.9915L166.977 18.1793L162.429 18.6877L158.801 21.302ZM158.801 18.8329L161.587 16.8479L165.11 16.4364L165.531 13.2169L167.687 10.651L165.531 8.08508L165.084 4.86557L161.587 4.45405L158.801 2.4691L156.014 4.45405L152.491 4.86557L152.07 8.08508L149.914 10.651L152.07 13.2169L152.517 16.4606L156.014 16.8479L158.801 18.8329Z" fill="#007AFF"/>
<defs>
<filter id="filter0_d_394_1139" x="0" y="13.0377" width="162.915" height="33.1364" filterUnits="userSpaceOnUse" color-interpolation-filters="sRGB">
<feFlood flood-opacity="0" result="BackgroundImageFix"/>
<feColorMatrix in="SourceAlpha" type="matrix" values="0 0 0 0 0 0 0 0 0 0 0 0 0 0 0 0 0 0 127 0" result="hardAlpha"/>
<feOffset dy="4"/>
<feGaussianBlur stdDeviation="2"/>
<feComposite in2="hardAlpha" operator="out"/>
<feColorMatrix type="matrix" values="0 0 0 0 0 0 0 0 0 0 0 0 0 0 0 0 0 0 0.25 0"/>
<feBlend mode="normal" in2="BackgroundImageFix" result="effect1_dropShadow_394_1139"/>
<feBlend mode="normal" in="SourceGraphic" in2="effect1_dropShadow_394_1139" result="shape"/>
</filter>
</defs>
</svg>
